<svg width="117" height="31" viewBox="0 0 117 31" fill="none" xmlns="http://www.w3.org/2000/svg">
<rect x="0.0544434" y="0.929199" width="116.804" height="29.201" rx="6.48913" fill="#E4605F"/>
<path d="M21.2347 21.2554V19.7304H23.5383V12.9493H21.6402V11.7812C22.1594 11.6839 22.6028 11.5704 22.9705 11.4406C23.349 11.3 23.7005 11.1323 24.025 10.9377H25.4202V19.7304H27.448V21.2554H21.2347ZM31.7583 21.45C31.2068 21.45 30.6606 21.3473 30.1198 21.1418C29.5899 20.9255 29.1302 20.6605 28.7409 20.3469L29.6169 19.1464C29.9738 19.4276 30.3253 19.6493 30.6714 19.8115C31.0283 19.963 31.4123 20.0387 31.8232 20.0387C32.2558 20.0387 32.5749 19.9521 32.7804 19.7791C32.9859 19.5952 33.0886 19.3627 33.0886 19.0815C33.0886 18.9193 33.0399 18.7787 32.9426 18.6597C32.8453 18.5299 32.7155 18.4164 32.5533 18.319C32.391 18.2217 32.2072 18.1352 32.0017 18.0595C31.7962 17.973 31.5907 17.8864 31.3852 17.7999C31.1256 17.7026 30.8607 17.589 30.5903 17.4592C30.3199 17.3294 30.0766 17.1726 29.8603 16.9888C29.6548 16.8049 29.4817 16.594 29.3411 16.3561C29.2114 16.1073 29.1465 15.8153 29.1465 15.48C29.1465 14.7771 29.406 14.2039 29.9252 13.7604C30.4443 13.317 31.1527 13.0953 32.0504 13.0953C32.6019 13.0953 33.0994 13.1926 33.5428 13.3873C33.9863 13.582 34.3702 13.8037 34.6947 14.0524L33.8349 15.188C33.5537 14.9825 33.2671 14.8203 32.9751 14.7014C32.6939 14.5716 32.3964 14.5067 32.0828 14.5067C31.6826 14.5067 31.3852 14.5932 31.1905 14.7662C31.0067 14.9285 30.9148 15.134 30.9148 15.3827C30.9148 15.5449 30.958 15.6855 31.0445 15.8045C31.1419 15.9127 31.2662 16.01 31.4177 16.0965C31.5691 16.183 31.7421 16.2642 31.9368 16.3399C32.1423 16.4156 32.3532 16.4913 32.5695 16.567C32.8399 16.6643 33.1102 16.7779 33.3806 16.9077C33.651 17.0266 33.8943 17.178 34.1106 17.3619C34.3378 17.5458 34.5162 17.7729 34.646 18.0433C34.7866 18.3028 34.8569 18.6165 34.8569 18.9842C34.8569 19.3303 34.7866 19.6547 34.646 19.9575C34.5162 20.2496 34.3215 20.5091 34.062 20.7362C33.8024 20.9525 33.478 21.1256 33.0886 21.2554C32.6993 21.3852 32.2558 21.45 31.7583 21.45ZM39.0121 21.45C38.547 21.45 38.1523 21.3797 37.8278 21.2391C37.5142 21.0986 37.2546 20.9039 37.0491 20.6551C36.8545 20.3956 36.7085 20.0927 36.6111 19.7466C36.5246 19.3897 36.4813 18.995 36.4813 18.5624V14.7662H35.3457V13.3711L36.5787 13.29L36.8058 11.1161H38.3632V13.29H40.391V14.7662H38.3632V18.5624C38.3632 19.4925 38.7363 19.9575 39.4826 19.9575C39.6232 19.9575 39.7637 19.9413 39.9043 19.9089C40.0558 19.8764 40.1909 19.8332 40.3099 19.7791L40.6344 21.158C40.4181 21.2337 40.1693 21.2986 39.8881 21.3527C39.6177 21.4176 39.3257 21.45 39.0121 21.45ZM45.4773 21.2554V10.6456H48.8192C49.4032 10.6456 49.9439 10.6997 50.4414 10.8079C50.9498 10.916 51.3878 11.0999 51.7555 11.3595C52.1232 11.619 52.4098 11.9597 52.6153 12.3815C52.8208 12.7925 52.9235 13.3062 52.9235 13.9227C52.9235 14.5067 52.8208 15.015 52.6153 15.4476C52.4098 15.8802 52.1232 16.2425 51.7555 16.5345C51.3986 16.8157 50.9714 17.0266 50.4739 17.1672C49.9872 17.297 49.4573 17.3619 48.8841 17.3619H47.3591V21.2554H45.4773ZM47.3591 15.8532H48.738C50.2954 15.8532 51.0741 15.2097 51.0741 13.9227C51.0741 13.2521 50.8686 12.7925 50.4577 12.5437C50.0575 12.2842 49.4627 12.1544 48.6732 12.1544H47.3591V15.8532ZM54.7572 21.2554V13.29H56.2984L56.4282 14.7014H56.4931C56.7743 14.1822 57.1149 13.7875 57.5151 13.5171C57.9153 13.2359 58.3262 13.0953 58.748 13.0953C59.1266 13.0953 59.4294 13.1494 59.6565 13.2575L59.3321 14.8798C59.1915 14.8365 59.0617 14.8041 58.9427 14.7825C58.8237 14.7608 58.6777 14.75 58.5047 14.75C58.1911 14.75 57.8612 14.8744 57.5151 15.1231C57.169 15.3611 56.8716 15.7829 56.6228 16.3885V21.2554H54.7572ZM60.8091 21.2554V13.29H62.6747V21.2554H60.8091ZM61.75 11.8948C61.4147 11.8948 61.139 11.7975 60.9226 11.6028C60.7063 11.4081 60.5982 11.154 60.5982 10.8403C60.5982 10.5267 60.7063 10.2725 60.9226 10.0779C61.139 9.87236 61.4147 9.76962 61.75 9.76962C62.0853 9.76962 62.3611 9.87236 62.5774 10.0779C62.7937 10.2725 62.9018 10.5267 62.9018 10.8403C62.9018 11.154 62.7937 11.4081 62.5774 11.6028C62.3611 11.7975 62.0853 11.8948 61.75 11.8948ZM68.3157 21.45C67.8182 21.45 67.3423 21.3581 66.8881 21.1743C66.4338 20.9904 66.0283 20.72 65.6714 20.3631C65.3253 20.0062 65.0495 19.5682 64.844 19.0491C64.6385 18.5299 64.5358 17.9405 64.5358 17.2808C64.5358 16.6211 64.6385 16.0316 64.844 15.5125C65.0495 14.9934 65.3253 14.5553 65.6714 14.1984C66.0283 13.8415 66.4338 13.5712 66.8881 13.3873C67.3423 13.1926 67.8182 13.0953 68.3157 13.0953C68.8132 13.0953 69.2891 13.1926 69.7433 13.3873C70.2084 13.5712 70.6139 13.8415 70.96 14.1984C71.3061 14.5553 71.5819 14.9934 71.7874 15.5125C72.0037 16.0316 72.1118 16.6211 72.1118 17.2808C72.1118 17.9405 72.0037 18.5299 71.7874 19.0491C71.5819 19.5682 71.3061 20.0062 70.96 20.3631C70.6139 20.72 70.2084 20.9904 69.7433 21.1743C69.2891 21.3581 68.8132 21.45 68.3157 21.45ZM68.3157 19.9251C68.8997 19.9251 69.3594 19.6872 69.6946 19.2113C70.0299 18.7246 70.1975 18.0811 70.1975 17.2808C70.1975 16.4696 70.0299 15.8261 69.6946 15.3503C69.3594 14.8636 68.8997 14.6202 68.3157 14.6202C67.7317 14.6202 67.272 14.8636 66.9368 15.3503C66.6123 15.8261 66.4501 16.4696 66.4501 17.2808C66.4501 18.0811 66.6123 18.7246 66.9368 19.2113C67.272 19.6872 67.7317 19.9251 68.3157 19.9251ZM73.9584 21.2554V13.29H75.4996L75.6294 14.7014H75.6943C75.9755 14.1822 76.3162 13.7875 76.7163 13.5171C77.1165 13.2359 77.5275 13.0953 77.9493 13.0953C78.3278 13.0953 78.6306 13.1494 78.8577 13.2575L78.5333 14.8798C78.3927 14.8365 78.2629 14.8041 78.1439 14.7825C78.025 14.7608 77.879 14.75 77.7059 14.75C77.3923 14.75 77.0624 14.8744 76.7163 15.1231C76.3702 15.3611 76.0728 15.7829 75.8241 16.3885V21.2554H73.9584ZM80.0103 21.2554V13.29H81.8759V21.2554H80.0103ZM80.9512 11.8948C80.616 11.8948 80.3402 11.7975 80.1239 11.6028C79.9076 11.4081 79.7994 11.154 79.7994 10.8403C79.7994 10.5267 79.9076 10.2725 80.1239 10.0779C80.3402 9.87236 80.616 9.76962 80.9512 9.76962C81.2865 9.76962 81.5623 9.87236 81.7786 10.0779C81.9949 10.2725 82.1031 10.5267 82.1031 10.8403C82.1031 11.154 81.9949 11.4081 81.7786 11.6028C81.5623 11.7975 81.2865 11.8948 80.9512 11.8948ZM87.0627 21.45C86.5976 21.45 86.2029 21.3797 85.8784 21.2391C85.5648 21.0986 85.3052 20.9039 85.0997 20.6551C84.905 20.3956 84.759 20.0927 84.6617 19.7466C84.5752 19.3897 84.5319 18.995 84.5319 18.5624V14.7662H83.3963V13.3711L84.6293 13.29L84.8564 11.1161H86.4138V13.29H88.4416V14.7662H86.4138V18.5624C86.4138 19.4925 86.7869 19.9575 87.5331 19.9575C87.6737 19.9575 87.8143 19.9413 87.9549 19.9089C88.1063 19.8764 88.2415 19.8332 88.3605 19.7791L88.685 21.158C88.4687 21.2337 88.2199 21.2986 87.9387 21.3527C87.6683 21.4176 87.3763 21.45 87.0627 21.45ZM90.6532 24.5324C90.4369 24.5324 90.2477 24.5162 90.0854 24.4837C89.9232 24.4621 89.7664 24.4242 89.615 24.3702L89.9557 22.9101C90.0314 22.9317 90.1179 22.9534 90.2152 22.975C90.3234 23.0074 90.4261 23.0237 90.5235 23.0237C90.9453 23.0237 91.2805 22.8939 91.5293 22.6343C91.7888 22.3856 91.9835 22.0611 92.1133 21.6609L92.2593 21.158L89.1283 13.29H91.0264L92.4053 17.1997C92.5243 17.5458 92.6378 17.9135 92.746 18.3028C92.865 18.6814 92.9839 19.0599 93.1029 19.4384H93.1678C93.2651 19.0707 93.3625 18.6976 93.4598 18.319C93.5679 17.9297 93.6707 17.5566 93.768 17.1997L94.9685 13.29H96.7692L93.8816 21.6123C93.7194 22.0665 93.5409 22.4721 93.3462 22.829C93.1516 23.1859 92.9244 23.4887 92.6649 23.7375C92.4161 23.997 92.1241 24.1917 91.7888 24.3215C91.4644 24.4621 91.0859 24.5324 90.6532 24.5324Z" fill="white"/>
</svg>
