<svg width="117" height="31" viewBox="0 0 117 31" fill="none" xmlns="http://www.w3.org/2000/svg">
<rect x="0.0544434" y="0.874756" width="116.804" height="29.201" rx="6.48913" fill="#DBC44A"/>
<path d="M18.0763 21.2009V20.114C18.7901 19.4218 19.4336 18.7837 20.0068 18.1997C20.5909 17.6157 21.083 17.0749 21.4831 16.5774C21.8941 16.0799 22.2077 15.6149 22.424 15.1823C22.6403 14.7497 22.7485 14.3387 22.7485 13.9493C22.7485 13.3978 22.6025 12.9651 22.3105 12.6515C22.0185 12.327 21.5967 12.1648 21.0451 12.1648C20.6449 12.1648 20.2772 12.2784 19.942 12.5055C19.6175 12.7326 19.3147 13.003 19.0335 13.3166L17.9952 12.2784C18.4711 11.7701 18.9578 11.3807 19.4553 11.1103C19.9636 10.8291 20.5746 10.6885 21.2884 10.6885C21.7859 10.6885 22.2348 10.7643 22.6349 10.9157C23.0351 11.0671 23.3758 11.2834 23.657 11.5646C23.9382 11.835 24.1545 12.1648 24.3059 12.5542C24.4681 12.9435 24.5492 13.3761 24.5492 13.852C24.5492 14.3062 24.4465 14.7713 24.241 15.2472C24.0463 15.7122 23.7759 16.1881 23.4299 16.6748C23.0946 17.1506 22.6998 17.6427 22.2456 18.151C21.7914 18.6594 21.3101 19.1839 20.8018 19.7247C21.0721 19.703 21.3642 19.6814 21.6778 19.6598C21.9914 19.6273 22.2726 19.6111 22.5214 19.6111H25.0521V21.2009H18.0763ZM26.9615 21.2009V13.2355H28.5027L28.6324 14.3062H28.6973C29.0542 13.9601 29.4382 13.6627 29.8491 13.414C30.2709 13.1652 30.7576 13.0409 31.3092 13.0409C32.1636 13.0409 32.7855 13.3166 33.1748 13.8682C33.5642 14.409 33.7588 15.1877 33.7588 16.2043V21.2009H31.8932V16.4476C31.8932 15.7879 31.7959 15.3229 31.6012 15.0525C31.4065 14.7821 31.0875 14.6469 30.6441 14.6469C30.298 14.6469 29.9897 14.7334 29.7194 14.9065C29.4598 15.0687 29.1624 15.312 28.8271 15.6365V21.2009H26.9615ZM38.8296 21.3956C37.8238 21.3956 37.0235 21.0333 36.4286 20.3087C35.8446 19.5732 35.5526 18.5458 35.5526 17.2263C35.5526 16.5774 35.6445 15.9934 35.8284 15.4743C36.0231 14.9551 36.2772 14.5171 36.5909 14.1602C36.9045 13.8033 37.2614 13.5275 37.6616 13.3329C38.0726 13.1382 38.4943 13.0409 38.927 13.0409C39.3812 13.0409 39.7651 13.122 40.0788 13.2842C40.3924 13.4356 40.7061 13.6465 41.0197 13.9169L40.9548 12.6353V9.74762H42.8204V21.2009H41.2793L41.1495 20.3411H41.0846C40.7926 20.6331 40.4519 20.8819 40.0626 21.0874C39.6732 21.2929 39.2622 21.3956 38.8296 21.3956ZM39.2839 19.8544C39.8787 19.8544 40.4357 19.557 40.9548 18.9622V15.2472C40.6736 14.9984 40.3978 14.8254 40.1274 14.728C39.8679 14.6307 39.6029 14.582 39.3325 14.582C38.8134 14.582 38.3754 14.8091 38.0185 15.2634C37.6616 15.7176 37.4831 16.3665 37.4831 17.2101C37.4831 18.0753 37.6345 18.7351 37.9374 19.1893C38.251 19.6327 38.6998 19.8544 39.2839 19.8544ZM48.6063 21.2009V10.5912H51.9482C52.5322 10.5912 53.073 10.6453 53.5705 10.7534C54.0788 10.8616 54.5168 11.0454 54.8845 11.305C55.2522 11.5646 55.5388 11.9053 55.7443 12.327C55.9498 12.738 56.0525 13.2517 56.0525 13.8682C56.0525 14.4522 55.9498 14.9606 55.7443 15.3932C55.5388 15.8258 55.2522 16.1881 54.8845 16.4801C54.5276 16.7613 54.1004 16.9722 53.6029 17.1128C53.1162 17.2426 52.5863 17.3075 52.0131 17.3075H50.4881V21.2009H48.6063ZM50.4881 15.7987H51.8671C53.4244 15.7987 54.2031 15.1552 54.2031 13.8682C54.2031 13.1977 53.9977 12.738 53.5867 12.4893C53.1865 12.2297 52.5917 12.0999 51.8022 12.0999H50.4881V15.7987ZM57.8862 21.2009V13.2355H59.4274L59.5572 14.6469H59.6221C59.9033 14.1278 60.2439 13.733 60.6441 13.4626C61.0443 13.1814 61.4553 13.0409 61.877 13.0409C62.2556 13.0409 62.5584 13.0949 62.7855 13.2031L62.4611 14.8254C62.3205 14.7821 62.1907 14.7497 62.0717 14.728C61.9528 14.7064 61.8067 14.6956 61.6337 14.6956C61.3201 14.6956 60.9902 14.82 60.6441 15.0687C60.298 15.3066 60.0006 15.7284 59.7519 16.3341V21.2009H57.8862ZM63.9381 21.2009V13.2355H65.8037V21.2009H63.9381ZM64.879 11.8404C64.5438 11.8404 64.268 11.743 64.0517 11.5484C63.8354 11.3537 63.7272 11.0995 63.7272 10.7859C63.7272 10.4722 63.8354 10.2181 64.0517 10.0234C64.268 9.81792 64.5438 9.71517 64.879 9.71517C65.2143 9.71517 65.4901 9.81792 65.7064 10.0234C65.9227 10.2181 66.0308 10.4722 66.0308 10.7859C66.0308 11.0995 65.9227 11.3537 65.7064 11.5484C65.4901 11.743 65.2143 11.8404 64.879 11.8404ZM71.4447 21.3956C70.9472 21.3956 70.4713 21.3037 70.0171 21.1198C69.5629 20.936 69.1573 20.6656 68.8004 20.3087C68.4543 19.9518 68.1785 19.5138 67.973 18.9946C67.7675 18.4755 67.6648 17.8861 67.6648 17.2263C67.6648 16.5666 67.7675 15.9772 67.973 15.4581C68.1785 14.9389 68.4543 14.5009 68.8004 14.144C69.1573 13.7871 69.5629 13.5167 70.0171 13.3329C70.4713 13.1382 70.9472 13.0409 71.4447 13.0409C71.9422 13.0409 72.4181 13.1382 72.8723 13.3329C73.3374 13.5167 73.7429 13.7871 74.089 14.144C74.4351 14.5009 74.7109 14.9389 74.9164 15.4581C75.1327 15.9772 75.2408 16.5666 75.2408 17.2263C75.2408 17.8861 75.1327 18.4755 74.9164 18.9946C74.7109 19.5138 74.4351 19.9518 74.089 20.3087C73.7429 20.6656 73.3374 20.936 72.8723 21.1198C72.4181 21.3037 71.9422 21.3956 71.4447 21.3956ZM71.4447 19.8707C72.0287 19.8707 72.4884 19.6327 72.8236 19.1569C73.1589 18.6702 73.3265 18.0267 73.3265 17.2263C73.3265 16.4152 73.1589 15.7717 72.8236 15.2958C72.4884 14.8091 72.0287 14.5658 71.4447 14.5658C70.8607 14.5658 70.401 14.8091 70.0658 15.2958C69.7413 15.7717 69.5791 16.4152 69.5791 17.2263C69.5791 18.0267 69.7413 18.6702 70.0658 19.1569C70.401 19.6327 70.8607 19.8707 71.4447 19.8707ZM77.0875 21.2009V13.2355H78.6286L78.7584 14.6469H78.8233C79.1045 14.1278 79.4452 13.733 79.8453 13.4626C80.2455 13.1814 80.6565 13.0409 81.0783 13.0409C81.4568 13.0409 81.7596 13.0949 81.9867 13.2031L81.6623 14.8254C81.5217 14.7821 81.3919 14.7497 81.2729 14.728C81.154 14.7064 81.008 14.6956 80.8349 14.6956C80.5213 14.6956 80.1914 14.82 79.8453 15.0687C79.4992 15.3066 79.2018 15.7284 78.9531 16.3341V21.2009H77.0875ZM83.1393 21.2009V13.2355H85.0049V21.2009H83.1393ZM84.0802 11.8404C83.745 11.8404 83.4692 11.743 83.2529 11.5484C83.0366 11.3537 82.9284 11.0995 82.9284 10.7859C82.9284 10.4722 83.0366 10.2181 83.2529 10.0234C83.4692 9.81792 83.745 9.71517 84.0802 9.71517C84.4155 9.71517 84.6913 9.81792 84.9076 10.0234C85.1239 10.2181 85.2321 10.4722 85.2321 10.7859C85.2321 11.0995 85.1239 11.3537 84.9076 11.5484C84.6913 11.743 84.4155 11.8404 84.0802 11.8404ZM90.1917 21.3956C89.7266 21.3956 89.3319 21.3253 89.0074 21.1847C88.6938 21.0441 88.4342 20.8494 88.2287 20.6007C88.0341 20.3411 87.888 20.0383 87.7907 19.6922C87.7042 19.3353 87.6609 18.9405 87.6609 18.5079V14.7118H86.5253V13.3166L87.7583 13.2355L87.9854 11.0617H89.5428V13.2355H91.5706V14.7118H89.5428V18.5079C89.5428 19.438 89.9159 19.9031 90.6621 19.9031C90.8027 19.9031 90.9433 19.8869 91.0839 19.8544C91.2354 19.822 91.3705 19.7787 91.4895 19.7247L91.814 21.1036C91.5977 21.1793 91.3489 21.2442 91.0677 21.2983C90.7973 21.3632 90.5053 21.3956 90.1917 21.3956ZM93.7822 24.4779C93.5659 24.4779 93.3767 24.4617 93.2144 24.4293C93.0522 24.4076 92.8954 24.3698 92.744 24.3157L93.0847 22.8557C93.1604 22.8773 93.2469 22.8989 93.3442 22.9205C93.4524 22.953 93.5551 22.9692 93.6525 22.9692C94.0743 22.9692 94.4095 22.8394 94.6583 22.5799C94.9178 22.3311 95.1125 22.0067 95.2423 21.6065L95.3883 21.1036L92.2573 13.2355H94.1554L95.5343 17.1452C95.6533 17.4913 95.7668 17.859 95.875 18.2484C95.994 18.6269 96.1129 19.0054 96.2319 19.384H96.2968C96.3941 19.0163 96.4915 18.6431 96.5888 18.2646C96.6969 17.8753 96.7997 17.5021 96.897 17.1452L98.0975 13.2355H99.8982L97.0106 21.5578C96.8484 22.0121 96.6699 22.4176 96.4752 22.7745C96.2806 23.1314 96.0534 23.4343 95.7939 23.683C95.5451 23.9426 95.2531 24.1373 94.9178 24.267C94.5934 24.4076 94.2149 24.4779 93.7822 24.4779Z" fill="white"/>
</svg>
