<svg width="49" height="49" viewBox="0 0 49 49" fill="none" xmlns="http://www.w3.org/2000/svg">
<rect x="1.51664" y="1.07499" width="46.7524" height="46.7523" rx="5.11354" fill="#DB3B3B" fill-opacity="0.1" stroke="#DB3B3B" stroke-width="1.46101"/>
<path d="M32.3184 17.1456H39.0147V19.8241H36.3362V37.2345C36.3362 37.5897 36.1951 37.9303 35.9439 38.1815C35.6928 38.4327 35.3521 38.5738 34.9969 38.5738H16.2473C15.8921 38.5738 15.5514 38.4327 15.3003 38.1815C15.0491 37.9303 14.908 37.5897 14.908 37.2345V19.8241H12.2295V17.1456H18.9258V13.1278C18.9258 12.7726 19.0669 12.432 19.3181 12.1808C19.5692 11.9297 19.9099 11.7886 20.2651 11.7886H30.9791C31.3343 11.7886 31.675 11.9297 31.9261 12.1808C32.1773 12.432 32.3184 12.7726 32.3184 13.1278V17.1456ZM33.6577 19.8241H17.5865V35.8953H33.6577V19.8241ZM21.6043 23.8419H24.2828V31.8775H21.6043V23.8419ZM26.9614 23.8419H29.6399V31.8775H26.9614V23.8419ZM21.6043 14.4671V17.1456H29.6399V14.4671H21.6043Z" fill="#DB3B3B"/>
</svg>
