<svg width="52" height="43" viewBox="0 0 52 43" fill="none" xmlns="http://www.w3.org/2000/svg">
<path d="M34.9191 30.4827L26.0084 21.572L17.0977 30.4827" stroke="black" stroke-opacity="0.4" stroke-width="2.22768" stroke-linecap="round" stroke-linejoin="round"/>
<path d="M26.0078 21.5723V41.6214" stroke="black" stroke-opacity="0.4" stroke-width="2.22768" stroke-linecap="round" stroke-linejoin="round"/>
<path d="M44.6988 35.8071C46.8715 34.6226 48.588 32.7482 49.5771 30.4799C50.5663 28.2115 50.7719 25.6783 50.1615 23.2801C49.5511 20.882 48.1595 18.7553 46.2062 17.2359C44.2529 15.7165 41.8493 14.8908 39.3746 14.8892H36.5678C35.8935 12.2811 34.6367 9.85981 32.892 7.80736C31.1472 5.75491 28.9599 4.12469 26.4944 3.03927C24.0289 1.95384 21.3495 1.44147 18.6575 1.54065C15.9655 1.63983 13.331 2.348 10.9521 3.61191C8.57313 4.87582 6.51169 6.66258 4.92271 8.83786C3.33373 11.0131 2.25856 13.5203 1.77802 16.171C1.29749 18.8216 1.4241 21.5467 2.14834 24.1413C2.87258 26.736 4.17559 29.1327 5.95943 31.1512" stroke="black" stroke-opacity="0.4" stroke-width="2.22768" stroke-linecap="round" stroke-linejoin="round"/>
<path d="M34.9191 30.4827L26.0084 21.572L17.0977 30.4827" stroke="black" stroke-opacity="0.4" stroke-width="2.22768" stroke-linecap="round" stroke-linejoin="round"/>
</svg>
