<svg width="117" height="31" viewBox="0 0 117 31" fill="none" xmlns="http://www.w3.org/2000/svg">
<rect x="0.0544434" y="0.929199" width="116.804" height="29.201" rx="6.48913" fill="#E4605F"/>
<path d="M15.6807 21.2554V10.6456H17.5626V14.9123H21.8616V10.6456H23.7434V21.2554H21.8616V16.5508H17.5626V21.2554H15.6807ZM26.2756 21.2554V13.29H28.1412V21.2554H26.2756ZM27.2165 11.8948C26.8813 11.8948 26.6055 11.7975 26.3892 11.6028C26.1729 11.4081 26.0647 11.154 26.0647 10.8403C26.0647 10.5267 26.1729 10.2725 26.3892 10.0779C26.6055 9.87236 26.8813 9.76962 27.2165 9.76962C27.5518 9.76962 27.8276 9.87236 28.0439 10.0779C28.2602 10.2725 28.3683 10.5267 28.3683 10.8403C28.3683 11.154 28.2602 11.4081 28.0439 11.6028C27.8276 11.7975 27.5518 11.8948 27.2165 11.8948ZM33.2955 24.7757C32.8196 24.7757 32.3762 24.7325 31.9652 24.6459C31.5651 24.5594 31.219 24.4296 30.927 24.2566C30.635 24.0835 30.4024 23.8672 30.2294 23.6077C30.0672 23.3481 29.9861 23.0453 29.9861 22.6992C29.9861 22.3639 30.0834 22.0503 30.2781 21.7583C30.4727 21.4771 30.7539 21.2229 31.1217 20.9958V20.9309C30.9162 20.8011 30.7431 20.6281 30.6025 20.4118C30.4727 20.1955 30.4079 19.9251 30.4079 19.6006C30.4079 19.287 30.4944 19.0058 30.6674 18.7571C30.8513 18.4975 31.0568 18.2866 31.2839 18.1244V18.0595C31.0135 17.854 30.7702 17.5728 30.5539 17.2159C30.3484 16.8482 30.2456 16.4264 30.2456 15.9505C30.2456 15.4963 30.3321 15.0907 30.5052 14.7338C30.6782 14.3769 30.9054 14.0795 31.1865 13.8415C31.4786 13.5928 31.8138 13.4089 32.1924 13.29C32.5709 13.1602 32.9711 13.0953 33.3929 13.0953C33.6092 13.0953 33.8146 13.1169 34.0093 13.1602C34.2148 13.1926 34.3987 13.2359 34.5609 13.29H37.4161V14.6689H35.9561C36.0858 14.8203 36.194 15.015 36.2805 15.2529C36.367 15.48 36.4103 15.7342 36.4103 16.0154C36.4103 16.4588 36.3292 16.8482 36.167 17.1834C36.0155 17.5187 35.8046 17.7999 35.5343 18.027C35.2639 18.2542 34.9448 18.4272 34.5771 18.5462C34.2094 18.6651 33.8146 18.7246 33.3929 18.7246C33.2198 18.7246 33.0414 18.7084 32.8575 18.6759C32.6736 18.6435 32.4898 18.5894 32.3059 18.5137C32.187 18.6219 32.0896 18.73 32.0139 18.8382C31.949 18.9463 31.9166 19.0923 31.9166 19.2762C31.9166 19.5033 32.0085 19.6818 32.1924 19.8115C32.387 19.9413 32.7277 20.0062 33.2144 20.0062H34.6258C35.5883 20.0062 36.313 20.163 36.7996 20.4767C37.2971 20.7795 37.5459 21.277 37.5459 21.9692C37.5459 22.3585 37.4431 22.7262 37.2377 23.0723C37.043 23.4184 36.7618 23.7158 36.3941 23.9646C36.0264 24.2133 35.5775 24.408 35.0476 24.5486C34.5284 24.7 33.9444 24.7757 33.2955 24.7757ZM33.3929 17.5566C33.7714 17.5566 34.0958 17.4214 34.3662 17.151C34.6366 16.8698 34.7718 16.4696 34.7718 15.9505C34.7718 15.453 34.6366 15.0691 34.3662 14.7987C34.1067 14.5175 33.7822 14.3769 33.3929 14.3769C33.0035 14.3769 32.6736 14.5121 32.4033 14.7825C32.1329 15.0528 31.9977 15.4422 31.9977 15.9505C31.9977 16.4696 32.1329 16.8698 32.4033 17.151C32.6736 17.4214 33.0035 17.5566 33.3929 17.5566ZM33.5875 23.559C34.2364 23.559 34.7556 23.4292 35.1449 23.1697C35.5451 22.9209 35.7452 22.6235 35.7452 22.2774C35.7452 21.9638 35.6208 21.7529 35.372 21.6447C35.1341 21.5366 34.788 21.4825 34.3338 21.4825H33.2468C32.8142 21.4825 32.4519 21.4446 32.1599 21.3689C31.7489 21.6826 31.5435 22.0341 31.5435 22.4234C31.5435 22.7803 31.7219 23.0561 32.0788 23.2508C32.4465 23.4563 32.9494 23.559 33.5875 23.559ZM38.9497 21.2554V9.80206H40.8153V12.7546L40.7504 14.2958C41.0857 13.9821 41.4534 13.7064 41.8536 13.4684C42.2645 13.2197 42.7458 13.0953 43.2974 13.0953C44.1518 13.0953 44.7737 13.3711 45.163 13.9227C45.5524 14.4634 45.747 15.2421 45.747 16.2587V21.2554H43.8814V16.5021C43.8814 15.8424 43.7841 15.3773 43.5894 15.1069C43.3947 14.8365 43.0757 14.7014 42.6323 14.7014C42.2862 14.7014 41.9779 14.7879 41.7076 14.9609C41.448 15.1231 41.1506 15.3665 40.8153 15.6909V21.2554H38.9497ZM51.4058 21.2554V10.6456H54.7477C55.3317 10.6456 55.8724 10.6997 56.3699 10.8079C56.8782 10.916 57.3163 11.0999 57.684 11.3595C58.0517 11.619 58.3383 11.9597 58.5438 12.3815C58.7493 12.7925 58.852 13.3062 58.852 13.9227C58.852 14.5067 58.7493 15.015 58.5438 15.4476C58.3383 15.8802 58.0517 16.2425 57.684 16.5345C57.3271 16.8157 56.8999 17.0266 56.4024 17.1672C55.9157 17.297 55.3857 17.3619 54.8125 17.3619H53.2876V21.2554H51.4058ZM53.2876 15.8532H54.6665C56.2239 15.8532 57.0026 15.2097 57.0026 13.9227C57.0026 13.2521 56.7971 12.7925 56.3862 12.5437C55.986 12.2842 55.3912 12.1544 54.6016 12.1544H53.2876V15.8532ZM60.6857 21.2554V13.29H62.2269L62.3567 14.7014H62.4216C62.7027 14.1822 63.0434 13.7875 63.4436 13.5171C63.8438 13.2359 64.2547 13.0953 64.6765 13.0953C65.0551 13.0953 65.3579 13.1494 65.585 13.2575L65.2605 14.8798C65.1199 14.8365 64.9902 14.8041 64.8712 14.7825C64.7522 14.7608 64.6062 14.75 64.4332 14.75C64.1195 14.75 63.7897 14.8744 63.4436 15.1231C63.0975 15.3611 62.8001 15.7829 62.5513 16.3885V21.2554H60.6857ZM66.7376 21.2554V13.29H68.6032V21.2554H66.7376ZM67.6785 11.8948C67.3432 11.8948 67.0674 11.7975 66.8511 11.6028C66.6348 11.4081 66.5267 11.154 66.5267 10.8403C66.5267 10.5267 66.6348 10.2725 66.8511 10.0779C67.0674 9.87236 67.3432 9.76962 67.6785 9.76962C68.0138 9.76962 68.2896 9.87236 68.5059 10.0779C68.7222 10.2725 68.8303 10.5267 68.8303 10.8403C68.8303 11.154 68.7222 11.4081 68.5059 11.6028C68.2896 11.7975 68.0138 11.8948 67.6785 11.8948ZM74.2442 21.45C73.7467 21.45 73.2708 21.3581 72.8166 21.1743C72.3623 20.9904 71.9568 20.72 71.5999 20.3631C71.2538 20.0062 70.978 19.5682 70.7725 19.0491C70.567 18.5299 70.4643 17.9405 70.4643 17.2808C70.4643 16.6211 70.567 16.0316 70.7725 15.5125C70.978 14.9934 71.2538 14.5553 71.5999 14.1984C71.9568 13.8415 72.3623 13.5712 72.8166 13.3873C73.2708 13.1926 73.7467 13.0953 74.2442 13.0953C74.7417 13.0953 75.2175 13.1926 75.6718 13.3873C76.1368 13.5712 76.5424 13.8415 76.8885 14.1984C77.2346 14.5553 77.5104 14.9934 77.7159 15.5125C77.9322 16.0316 78.0403 16.6211 78.0403 17.2808C78.0403 17.9405 77.9322 18.5299 77.7159 19.0491C77.5104 19.5682 77.2346 20.0062 76.8885 20.3631C76.5424 20.72 76.1368 20.9904 75.6718 21.1743C75.2175 21.3581 74.7417 21.45 74.2442 21.45ZM74.2442 19.9251C74.8282 19.9251 75.2878 19.6872 75.6231 19.2113C75.9584 18.7246 76.126 18.0811 76.126 17.2808C76.126 16.4696 75.9584 15.8261 75.6231 15.3503C75.2878 14.8636 74.8282 14.6202 74.2442 14.6202C73.6602 14.6202 73.2005 14.8636 72.8652 15.3503C72.5408 15.8261 72.3786 16.4696 72.3786 17.2808C72.3786 18.0811 72.5408 18.7246 72.8652 19.2113C73.2005 19.6872 73.6602 19.9251 74.2442 19.9251ZM79.8869 21.2554V13.29H81.4281L81.5579 14.7014H81.6228C81.904 14.1822 82.2446 13.7875 82.6448 13.5171C83.045 13.2359 83.456 13.0953 83.8777 13.0953C84.2563 13.0953 84.5591 13.1494 84.7862 13.2575L84.4618 14.8798C84.3212 14.8365 84.1914 14.8041 84.0724 14.7825C83.9535 14.7608 83.8074 14.75 83.6344 14.75C83.3208 14.75 82.9909 14.8744 82.6448 15.1231C82.2987 15.3611 82.0013 15.7829 81.7526 16.3885V21.2554H79.8869ZM85.9388 21.2554V13.29H87.8044V21.2554H85.9388ZM86.8797 11.8948C86.5445 11.8948 86.2687 11.7975 86.0524 11.6028C85.8361 11.4081 85.7279 11.154 85.7279 10.8403C85.7279 10.5267 85.8361 10.2725 86.0524 10.0779C86.2687 9.87236 86.5445 9.76962 86.8797 9.76962C87.215 9.76962 87.4908 9.87236 87.7071 10.0779C87.9234 10.2725 88.0315 10.5267 88.0315 10.8403C88.0315 11.154 87.9234 11.4081 87.7071 11.6028C87.4908 11.7975 87.215 11.8948 86.8797 11.8948ZM92.9912 21.45C92.5261 21.45 92.1314 21.3797 91.8069 21.2391C91.4933 21.0986 91.2337 20.9039 91.0282 20.6551C90.8335 20.3956 90.6875 20.0927 90.5902 19.7466C90.5037 19.3897 90.4604 18.995 90.4604 18.5624V14.7662H89.3248V13.3711L90.5577 13.29L90.7849 11.1161H92.3423V13.29H94.3701V14.7662H92.3423V18.5624C92.3423 19.4925 92.7154 19.9575 93.4616 19.9575C93.6022 19.9575 93.7428 19.9413 93.8834 19.9089C94.0348 19.8764 94.17 19.8332 94.289 19.7791L94.6134 21.158C94.3971 21.2337 94.1484 21.2986 93.8672 21.3527C93.5968 21.4176 93.3048 21.45 92.9912 21.45ZM96.5817 24.5324C96.3654 24.5324 96.1762 24.5162 96.0139 24.4837C95.8517 24.4621 95.6949 24.4242 95.5435 24.3702L95.8842 22.9101C95.9599 22.9317 96.0464 22.9534 96.1437 22.975C96.2519 23.0074 96.3546 23.0237 96.4519 23.0237C96.8737 23.0237 97.209 22.8939 97.4578 22.6343C97.7173 22.3856 97.912 22.0611 98.0418 21.6609L98.1878 21.158L95.0568 13.29H96.9549L98.3338 17.1997C98.4528 17.5458 98.5663 17.9135 98.6745 18.3028C98.7934 18.6814 98.9124 19.0599 99.0314 19.4384H99.0963C99.1936 19.0707 99.2909 18.6976 99.3883 18.319C99.4964 17.9297 99.5992 17.5566 99.6965 17.1997L100.897 13.29H102.698L99.8101 21.6123C99.6478 22.0665 99.4694 22.4721 99.2747 22.829C99.08 23.1859 98.8529 23.4887 98.5934 23.7375C98.3446 23.997 98.0526 24.1917 97.7173 24.3215C97.3929 24.4621 97.0143 24.5324 96.5817 24.5324Z" fill="white"/>
</svg>
