<svg width="66" height="66"
     viewBox="0 0 66 66"
     fill="none"
     xmlns="http://www.w3.org/2000/svg">
    <path d="M50.4408 60C50.2224 60.0003 50.0097 59.9311 49.8345 59.8025C49.6593 59.674 49.5309 59.493 49.4684 59.2867C49.4059 59.0803 49.4127 58.8595 49.4878 58.6572C49.5628 58.455 49.7022 58.2821 49.885 58.1642C54.386 55.2797 58.0496 51.2911 60.5168 46.5894C62.9839 41.8877 64.1699 36.6344 63.9583 31.3445C63.7467 26.0545 62.1449 20.9097 59.3099 16.4143C56.4749 11.9188 52.5041 8.22723 47.7867 5.70137C43.0693 3.17551 37.7674 1.90212 32.4007 2.00603C27.034 2.10995 21.7868 3.58762 17.1736 6.29416C12.5604 9.0007 8.7395 12.8432 6.0856 17.4449C3.4317 22.0466 2.03588 27.2495 2.035 32.5435C2.035 33.4 2.07263 34.2908 2.145 35.153C2.15622 35.2842 2.14111 35.4163 2.10056 35.5418C2.06 35.6673 1.99479 35.7836 1.90864 35.8843C1.82249 35.9849 1.71709 36.0677 1.59846 36.1282C1.47983 36.1886 1.35028 36.2254 1.21723 36.2365C1.08418 36.2475 0.950227 36.2326 0.823014 36.1926C0.695801 36.1527 0.577829 36.0883 0.475819 36.0034C0.373809 35.9184 0.28976 35.8144 0.228483 35.6974C0.167207 35.5804 0.129899 35.4527 0.118685 35.3214C0.0405274 34.4021 0 33.4686 0 32.5435C0.000591549 26.9032 1.48738 21.3598 4.3146 16.4569C7.14181 11.554 11.2124 7.45984 16.1272 4.57595C21.0421 1.69205 26.6324 0.117378 32.3502 0.00631195C38.068 -0.104754 43.7169 1.2516 48.743 3.9424C53.7692 6.6332 58 10.5661 61.0208 15.3554C64.0416 20.1447 65.7485 25.6261 65.9743 31.262C66.2 36.898 64.9369 42.4951 62.3087 47.5045C59.6804 52.5139 55.7773 56.7638 50.9821 59.8373C50.8215 59.9421 50.6334 59.9987 50.4408 60V60Z" fill="#F5821F"/>
    <path d="M33.0029 56.9825C26.6391 56.9756 20.538 54.4689 16.0381 50.0126C11.5382 45.5562 9.00712 39.5141 9.0001 33.2118C8.98962 29.7072 9.76941 26.2446 11.2826 23.0765C11.3376 22.9508 11.4176 22.8373 11.5178 22.7429C11.618 22.6484 11.7364 22.5749 11.8659 22.5268C11.9954 22.4786 12.1334 22.4567 12.2716 22.4624C12.4098 22.4682 12.5455 22.5014 12.6704 22.5602C12.7954 22.6189 12.9072 22.702 12.999 22.8044C13.0909 22.9068 13.161 23.0265 13.2052 23.1563C13.2494 23.2862 13.2667 23.4235 13.2562 23.5601C13.2457 23.6967 13.2075 23.8298 13.1439 23.9515C11.7566 26.851 11.0411 30.0208 11.0499 33.2293C11.0514 37.1825 12.1418 41.0604 14.2038 44.4454C16.2658 47.8304 19.2212 50.5941 22.7517 52.439C26.2821 54.2839 30.2539 55.14 34.2393 54.9151C38.2246 54.6902 42.0725 53.3929 45.3686 51.1628C48.6646 48.9328 51.2838 45.8545 52.9442 42.2595C54.6046 38.6645 55.2433 34.689 54.7913 30.7612C54.3394 26.8334 52.814 23.1021 50.3795 19.9692C47.945 16.8363 44.6936 14.4205 40.9754 12.982C40.8457 12.936 40.7266 12.8647 40.6251 12.7724C40.5237 12.6801 40.442 12.5685 40.3848 12.4444C40.3276 12.3202 40.2962 12.186 40.2923 12.0496C40.2884 11.9132 40.3122 11.7774 40.3622 11.6503C40.4122 11.5231 40.4875 11.4072 40.5835 11.3094C40.6795 11.2115 40.7944 11.1337 40.9213 11.0806C41.0482 11.0274 41.1846 11 41.3224 11C41.4601 11 41.5965 11.0273 41.7235 11.0803C46.9368 13.0957 51.2753 16.8516 53.989 21.6987C56.7027 26.5459 57.621 32.1797 56.5853 37.6263C55.5495 43.0728 52.6248 47.9899 48.3166 51.5274C44.0084 55.065 38.5876 57.0007 32.9912 57L33.0029 56.9825Z" fill="#F5821F"/>
    <animateTransform attributeName="transform" type="rotate" from="0" to="360" dur="1.5s" repeatCount="indefinite" />
</svg>
