<svg width="117" height="31" viewBox="0 0 117 31" fill="none" xmlns="http://www.w3.org/2000/svg">
<rect x="0.0544434" y="0.874756" width="116.804" height="29.201" rx="6.48913" fill="#DBC44A"/>
<path d="M17.6419 21.2009V10.5912H19.5238V19.6111H23.9364V21.2009H17.6419ZM28.6776 21.3956C28.1801 21.3956 27.7043 21.3037 27.25 21.1198C26.7958 20.936 26.3902 20.6656 26.0333 20.3087C25.6872 19.9518 25.4114 19.5138 25.2059 18.9946C25.0005 18.4755 24.8977 17.8861 24.8977 17.2263C24.8977 16.5666 25.0005 15.9772 25.2059 15.4581C25.4114 14.9389 25.6872 14.5009 26.0333 14.144C26.3902 13.7871 26.7958 13.5167 27.25 13.3329C27.7043 13.1382 28.1801 13.0409 28.6776 13.0409C29.1751 13.0409 29.651 13.1382 30.1052 13.3329C30.5703 13.5167 30.9759 13.7871 31.3219 14.144C31.668 14.5009 31.9438 14.9389 32.1493 15.4581C32.3656 15.9772 32.4738 16.5666 32.4738 17.2263C32.4738 17.8861 32.3656 18.4755 32.1493 18.9946C31.9438 19.5138 31.668 19.9518 31.3219 20.3087C30.9759 20.6656 30.5703 20.936 30.1052 21.1198C29.651 21.3037 29.1751 21.3956 28.6776 21.3956ZM28.6776 19.8707C29.2616 19.8707 29.7213 19.6327 30.0566 19.1569C30.3918 18.6702 30.5595 18.0267 30.5595 17.2263C30.5595 16.4152 30.3918 15.7717 30.0566 15.2958C29.7213 14.8091 29.2616 14.5658 28.6776 14.5658C28.0936 14.5658 27.634 14.8091 27.2987 15.2958C26.9742 15.7717 26.812 16.4152 26.812 17.2263C26.812 18.0267 26.9742 18.6702 27.2987 19.1569C27.634 19.6327 28.0936 19.8707 28.6776 19.8707ZM35.5394 21.2009L33.4304 13.2355H35.3122L36.2694 17.3723C36.3559 17.7509 36.4262 18.1294 36.4803 18.5079C36.5452 18.8865 36.6155 19.2704 36.6912 19.6598H36.7561C36.8318 19.2704 36.9075 18.8865 36.9832 18.5079C37.0697 18.1294 37.1616 17.7509 37.259 17.3723L38.2972 13.2355H40.0006L41.0551 17.3723C41.1525 17.7509 41.2444 18.1294 41.3309 18.5079C41.4174 18.8865 41.504 19.2704 41.5905 19.6598H41.6554C41.7311 19.2704 41.8014 18.8865 41.8663 18.5079C41.9312 18.1294 42.0015 17.7509 42.0772 17.3723L43.0343 13.2355H44.7864L42.7585 21.2009H40.536L39.6113 17.4859C39.5248 17.1074 39.4437 16.7342 39.368 16.3665C39.2922 15.988 39.2111 15.5878 39.1246 15.166H39.0597C38.984 15.5878 38.9083 15.988 38.8326 16.3665C38.7569 16.7451 38.6758 17.1236 38.5893 17.5021L37.6808 21.2009H35.5394ZM49.7707 21.2009V10.5912H53.1126C53.6966 10.5912 54.2374 10.6453 54.7349 10.7534C55.2432 10.8616 55.6812 11.0454 56.0489 11.305C56.4166 11.5646 56.7033 11.9053 56.9087 12.327C57.1142 12.738 57.217 13.2517 57.217 13.8682C57.217 14.4522 57.1142 14.9606 56.9087 15.3932C56.7033 15.8258 56.4166 16.1881 56.0489 16.4801C55.692 16.7613 55.2648 16.9722 54.7673 17.1128C54.2806 17.2426 53.7507 17.3075 53.1775 17.3075H51.6525V21.2009H49.7707ZM51.6525 15.7987H53.0315C54.5889 15.7987 55.3676 15.1552 55.3676 13.8682C55.3676 13.1977 55.1621 12.738 54.7511 12.4893C54.3509 12.2297 53.7561 12.0999 52.9666 12.0999H51.6525V15.7987ZM59.0507 21.2009V13.2355H60.5918L60.7216 14.6469H60.7865C61.0677 14.1278 61.4084 13.733 61.8085 13.4626C62.2087 13.1814 62.6197 13.0409 63.0415 13.0409C63.42 13.0409 63.7228 13.0949 63.9499 13.2031L63.6255 14.8254C63.4849 14.7821 63.3551 14.7497 63.2361 14.728C63.1172 14.7064 62.9712 14.6956 62.7981 14.6956C62.4845 14.6956 62.1546 14.82 61.8085 15.0687C61.4625 15.3066 61.165 15.7284 60.9163 16.3341V21.2009H59.0507ZM65.1025 21.2009V13.2355H66.9682V21.2009H65.1025ZM66.0435 11.8404C65.7082 11.8404 65.4324 11.743 65.2161 11.5484C64.9998 11.3537 64.8916 11.0995 64.8916 10.7859C64.8916 10.4722 64.9998 10.2181 65.2161 10.0234C65.4324 9.81792 65.7082 9.71517 66.0435 9.71517C66.3787 9.71517 66.6545 9.81792 66.8708 10.0234C67.0871 10.2181 67.1953 10.4722 67.1953 10.7859C67.1953 11.0995 67.0871 11.3537 66.8708 11.5484C66.6545 11.743 66.3787 11.8404 66.0435 11.8404ZM72.6091 21.3956C72.1116 21.3956 71.6358 21.3037 71.1815 21.1198C70.7273 20.936 70.3217 20.6656 69.9648 20.3087C69.6187 19.9518 69.3429 19.5138 69.1375 18.9946C68.932 18.4755 68.8292 17.8861 68.8292 17.2263C68.8292 16.5666 68.932 15.9772 69.1375 15.4581C69.3429 14.9389 69.6187 14.5009 69.9648 14.144C70.3217 13.7871 70.7273 13.5167 71.1815 13.3329C71.6358 13.1382 72.1116 13.0409 72.6091 13.0409C73.1066 13.0409 73.5825 13.1382 74.0367 13.3329C74.5018 13.5167 74.9074 13.7871 75.2535 14.144C75.5995 14.5009 75.8753 14.9389 76.0808 15.4581C76.2971 15.9772 76.4053 16.5666 76.4053 17.2263C76.4053 17.8861 76.2971 18.4755 76.0808 18.9946C75.8753 19.5138 75.5995 19.9518 75.2535 20.3087C74.9074 20.6656 74.5018 20.936 74.0367 21.1198C73.5825 21.3037 73.1066 21.3956 72.6091 21.3956ZM72.6091 19.8707C73.1932 19.8707 73.6528 19.6327 73.9881 19.1569C74.3233 18.6702 74.491 18.0267 74.491 17.2263C74.491 16.4152 74.3233 15.7717 73.9881 15.2958C73.6528 14.8091 73.1932 14.5658 72.6091 14.5658C72.0251 14.5658 71.5655 14.8091 71.2302 15.2958C70.9057 15.7717 70.7435 16.4152 70.7435 17.2263C70.7435 18.0267 70.9057 18.6702 71.2302 19.1569C71.5655 19.6327 72.0251 19.8707 72.6091 19.8707ZM78.2519 21.2009V13.2355H79.793L79.9228 14.6469H79.9877C80.2689 14.1278 80.6096 13.733 81.0098 13.4626C81.4099 13.1814 81.8209 13.0409 82.2427 13.0409C82.6212 13.0409 82.9241 13.0949 83.1512 13.2031L82.8267 14.8254C82.6861 14.7821 82.5563 14.7497 82.4374 14.728C82.3184 14.7064 82.1724 14.6956 81.9994 14.6956C81.6857 14.6956 81.3558 14.82 81.0098 15.0687C80.6637 15.3066 80.3663 15.7284 80.1175 16.3341V21.2009H78.2519ZM84.3037 21.2009V13.2355H86.1694V21.2009H84.3037ZM85.2447 11.8404C84.9094 11.8404 84.6336 11.743 84.4173 11.5484C84.201 11.3537 84.0929 11.0995 84.0929 10.7859C84.0929 10.4722 84.201 10.2181 84.4173 10.0234C84.6336 9.81792 84.9094 9.71517 85.2447 9.71517C85.5799 9.71517 85.8557 9.81792 86.072 10.0234C86.2883 10.2181 86.3965 10.4722 86.3965 10.7859C86.3965 11.0995 86.2883 11.3537 86.072 11.5484C85.8557 11.743 85.5799 11.8404 85.2447 11.8404ZM91.3561 21.3956C90.8911 21.3956 90.4963 21.3253 90.1719 21.1847C89.8582 21.0441 89.5986 20.8494 89.3932 20.6007C89.1985 20.3411 89.0525 20.0383 88.9551 19.6922C88.8686 19.3353 88.8254 18.9405 88.8254 18.5079V14.7118H87.6898V13.3166L88.9227 13.2355L89.1498 11.0617H90.7072V13.2355H92.7351V14.7118H90.7072V18.5079C90.7072 19.438 91.0803 19.9031 91.8266 19.9031C91.9672 19.9031 92.1078 19.8869 92.2484 19.8544C92.3998 19.822 92.535 19.7787 92.6539 19.7247L92.9784 21.1036C92.7621 21.1793 92.5133 21.2442 92.2321 21.2983C91.9618 21.3632 91.6698 21.3956 91.3561 21.3956ZM94.9467 24.4779C94.7304 24.4779 94.5411 24.4617 94.3789 24.4293C94.2167 24.4076 94.0598 24.3698 93.9084 24.3157L94.2491 22.8557C94.3248 22.8773 94.4113 22.8989 94.5087 22.9205C94.6168 22.953 94.7196 22.9692 94.8169 22.9692C95.2387 22.9692 95.574 22.8394 95.8227 22.5799C96.0823 22.3311 96.2769 22.0067 96.4067 21.6065L96.5527 21.1036L93.4217 13.2355H95.3198L96.6987 17.1452C96.8177 17.4913 96.9313 17.859 97.0394 18.2484C97.1584 18.6269 97.2774 19.0054 97.3963 19.384H97.4612C97.5586 19.0163 97.6559 18.6431 97.7532 18.2646C97.8614 17.8753 97.9641 17.5021 98.0615 17.1452L99.2619 13.2355H101.063L98.175 21.5578C98.0128 22.0121 97.8343 22.4176 97.6397 22.7745C97.445 23.1314 97.2179 23.4343 96.9583 23.683C96.7096 23.9426 96.4175 24.1373 96.0823 24.267C95.7578 24.4076 95.3793 24.4779 94.9467 24.4779Z" fill="white"/>
</svg>
