<svg width="40" height="40" viewBox="0 0 40 40" fill="none" xmlns="http://www.w3.org/2000/svg">
<path fill-rule="evenodd" clip-rule="evenodd" d="M11.0815 8.62092C11.8875 8.08237 12.835 7.79492 13.8044 7.79492C14.4268 7.79492 14.9313 8.29945 14.9313 8.92181C14.9313 9.54417 14.4268 10.0487 13.8044 10.0487C13.2808 10.0487 12.7689 10.204 12.3336 10.4949C11.8982 10.7858 11.5589 11.1992 11.3585 11.683C11.1581 12.1667 11.1057 12.6991 11.2079 13.2126C11.31 13.7262 11.5621 14.1979 11.9324 14.5681C12.3026 14.9384 12.7744 15.1905 13.2879 15.2927C13.8015 15.3948 14.3338 15.3424 14.8175 15.142C15.3013 14.9416 15.7148 14.6023 16.0057 14.1669C16.2966 13.7316 16.4518 13.2197 16.4518 12.6961C16.4518 12.0738 16.9564 11.5692 17.5787 11.5692C18.2011 11.5692 18.7056 12.0738 18.7056 12.6961C18.7056 13.6655 18.4182 14.6131 17.8796 15.4191C17.3411 16.2251 16.5756 16.8533 15.68 17.2242C14.7844 17.5952 13.799 17.6923 12.8482 17.5031C11.8975 17.314 11.0242 16.8472 10.3387 16.1618C9.6533 15.4763 9.1865 14.603 8.99739 13.6523C8.80828 12.7016 8.90534 11.7161 9.2763 10.8205C9.64726 9.92493 10.2755 9.15947 11.0815 8.62092Z" fill="#8D98AA"/>
<path fill-rule="evenodd" clip-rule="evenodd" d="M38.2889 14.3298C38.9023 14.3298 39.3995 14.8374 39.3995 15.4636V24.9572C39.3995 29.8137 38.4602 33.5083 36.071 35.9609C33.6802 38.415 30.0772 39.3804 25.3429 39.3804H14.2466C9.51382 39.3804 5.91085 38.4154 3.51977 35.9615C1.13016 33.5092 0.189972 29.8146 0.189972 24.9572V21.1401C0.189972 20.5139 0.687235 20.0063 1.30064 20.0063C1.91405 20.0063 2.41131 20.5139 2.41131 21.1401V24.9572C2.41131 29.5932 3.32224 32.5434 5.09467 34.3624C6.86564 36.1799 9.73564 37.1128 14.2466 37.1128H25.3429C29.8554 37.1128 32.7253 36.1795 34.4959 34.3619C36.268 32.5428 37.1782 29.5926 37.1782 24.9572V15.4636C37.1782 14.8374 37.6755 14.3298 38.2889 14.3298Z" fill="#8D98AA"/>
<path fill-rule="evenodd" clip-rule="evenodd" d="M3.56605 3.5201C5.98893 1.1163 9.63986 0.170654 14.4391 0.170654H21.9422C22.5608 0.170654 23.0623 0.668189 23.0623 1.28193C23.0623 1.89567 22.5608 2.3932 21.9422 2.3932H14.4391C9.8609 2.3932 6.94735 3.30858 5.1501 5.09168C3.35285 6.87479 2.43021 9.7654 2.43021 14.3075C2.43021 14.9213 1.92873 15.4188 1.31012 15.4188C0.691515 15.4188 0.190033 14.9213 0.190033 14.3075C0.190033 9.54611 1.14318 5.92391 3.56605 3.5201Z" fill="#8D98AA"/>
<path fill-rule="evenodd" clip-rule="evenodd" d="M25.2407 6.70561C25.2407 6.10409 25.7627 5.61646 26.4065 5.61646H37.1447C37.7886 5.61646 38.3106 6.10409 38.3106 6.70561C38.3106 7.30713 37.7886 7.79476 37.1447 7.79476H26.4065C25.7627 7.79476 25.2407 7.30713 25.2407 6.70561Z" fill="#8D98AA"/>
<path fill-rule="evenodd" clip-rule="evenodd" d="M31.7755 0.170654C32.377 0.170654 32.8646 0.692619 32.8646 1.3365V12.0747C32.8646 12.7185 32.377 13.2405 31.7755 13.2405C31.1739 13.2405 30.6863 12.7185 30.6863 12.0747V1.3365C30.6863 0.692619 31.1739 0.170654 31.7755 0.170654Z" fill="#8D98AA"/>
<path fill-rule="evenodd" clip-rule="evenodd" d="M30.7404 21.5995L23.0321 28.2721L23.0116 28.2894C22.0745 29.0621 20.8987 29.4845 19.6851 29.4845C18.4716 29.4845 17.2958 29.0621 16.3586 28.2894C16.3485 28.2811 16.3386 28.2726 16.3288 28.2639L15.7337 27.7371C15.2355 27.335 14.6234 27.1001 13.9843 27.066C13.3411 27.0316 12.7038 27.2022 12.1635 27.5532L3.01879 33.7426C2.50835 34.0881 1.81509 33.9535 1.47034 33.442C1.1256 32.9304 1.25992 32.2357 1.77036 31.8902L10.938 25.6853C11.8761 25.0722 12.9846 24.774 14.1031 24.8338C15.2215 24.8936 16.292 25.3083 17.1597 26.018C17.171 26.0272 17.1821 26.0366 17.193 26.0463L17.7898 26.5747C18.3254 27.0109 18.9946 27.2492 19.6851 27.2492C20.3776 27.2492 21.0486 27.0096 21.585 26.5711L29.2933 19.8984L29.3137 19.8811C30.2509 19.1085 31.4267 18.686 32.6402 18.686C33.8538 18.686 35.0296 19.1085 35.9668 19.8811L35.9873 19.8984L39.0134 22.5182C39.4795 22.9218 39.5309 23.6275 39.1283 24.0946C38.7256 24.5617 38.0213 24.6133 37.5552 24.2098L34.54 21.5994C34.0037 21.161 33.3327 20.9214 32.6402 20.9214C31.9478 20.9214 31.2767 21.161 30.7404 21.5995Z" fill="#8D98AA"/>
</svg>
